<svg xmlns="http://www.w3.org/2000/svg" width="1200" height="380" viewBox="0 0 1200 380">
  <defs>
    <linearGradient id="bg" x1="0" x2="1">
      <stop offset="0" stop-color="#f7f9fc"/>
      <stop offset="1" stop-color="#eef2f8"/>
    </linearGradient>
    <filter id="shadow" x="-20%" y="-20%" width="140%" height="140%">
      <feDropShadow dx="0" dy="5" stdDeviation="7" flood-opacity="0.12"/>
    </filter>
  </defs>
  <rect width="1200" height="380" rx="24" fill="url(#bg)"/>
  <text x="60" y="62" font-family="Arial, sans-serif" font-size="30" font-weight="700" fill="#172033">TextPulse Forecast Lab — Data Flow</text>
  <g font-family="Arial, sans-serif" filter="url(#shadow)">
    <g transform="translate(55,125)">
      <rect width="190" height="130" rx="18" fill="#ffffff" stroke="#d8deea"/>
      <text x="95" y="42" text-anchor="middle" font-size="20" font-weight="700" fill="#172033">CSV Input</text>
      <text x="95" y="72" text-anchor="middle" font-size="15" fill="#596579">date + text</text>
      <text x="95" y="98" text-anchor="middle" font-size="15" fill="#596579">validation &amp; cleaning</text>
    </g>
    <g transform="translate(300,125)">
      <rect width="190" height="130" rx="18" fill="#ffffff" stroke="#d8deea"/>
      <text x="95" y="42" text-anchor="middle" font-size="20" font-weight="700" fill="#172033">NLP Layer</text>
      <text x="95" y="72" text-anchor="middle" font-size="15" fill="#596579">tokenization</text>
      <text x="95" y="98" text-anchor="middle" font-size="15" fill="#596579">stemming / exact match</text>
    </g>
    <g transform="translate(545,125)">
      <rect width="190" height="130" rx="18" fill="#ffffff" stroke="#d8deea"/>
      <text x="95" y="42" text-anchor="middle" font-size="20" font-weight="700" fill="#172033">Time Series</text>
      <text x="95" y="72" text-anchor="middle" font-size="15" fill="#596579">daily / weekly / monthly</text>
      <text x="95" y="98" text-anchor="middle" font-size="15" fill="#596579">multiple topics</text>
    </g>
    <g transform="translate(790,125)">
      <rect width="190" height="130" rx="18" fill="#ffffff" stroke="#d8deea"/>
      <text x="95" y="42" text-anchor="middle" font-size="20" font-weight="700" fill="#172033">Forecasting</text>
      <text x="95" y="72" text-anchor="middle" font-size="15" fill="#596579">ARMA / ARIMA / naive</text>
      <text x="95" y="98" text-anchor="middle" font-size="15" fill="#596579">backtesting &amp; intervals</text>
    </g>
    <g transform="translate(1035,125)">
      <rect width="110" height="130" rx="18" fill="#5b78ff"/>
      <text x="55" y="42" text-anchor="middle" font-size="19" font-weight="700" fill="#ffffff">Insights</text>
      <text x="55" y="72" text-anchor="middle" font-size="14" fill="#ffffff">charts</text>
      <text x="55" y="95" text-anchor="middle" font-size="14" fill="#ffffff">metrics</text>
      <text x="55" y="118" text-anchor="middle" font-size="14" fill="#ffffff">exports</text>
    </g>
  </g>
  <g stroke="#8d99ae" stroke-width="3" fill="none">
    <path d="M250 190 H292"/><path d="M495 190 H537"/><path d="M740 190 H782"/><path d="M985 190 H1027"/>
  </g>
  <g fill="#8d99ae">
    <path d="M292 190 l-10 -7 v14 z"/><path d="M537 190 l-10 -7 v14 z"/><path d="M782 190 l-10 -7 v14 z"/><path d="M1027 190 l-10 -7 v14 z"/>
  </g>
</svg>
